<svg width="3500" height="3500" viewBox="0 0 3500 3500" fill="none" xmlns="http://www.w3.org/2000/svg">
<g clip-path="url(#clip0_67_2)">
<path d="M1172.58 131.939C1198.91 92.8412 1212.08 73.2923 1233.39 67.6414C1254.7 61.9905 1275.82 72.4445 1318.07 93.3525L2359.59 608.759C2477.83 667.274 2536.96 696.531 2582.51 727.156C2896.04 937.957 2997.3 1319.76 2829.44 1658.23C2805.05 1707.41 2768.2 1762.12 2694.49 1871.54V1871.54C2620.79 1980.96 2583.93 2035.67 2546.44 2078.36C2288.39 2372.2 1851.99 2487.94 1482.23 2360.61C1428.51 2342.11 1369.39 2312.85 1251.14 2254.33L209.627 1738.93C167.376 1718.02 146.251 1707.57 141.307 1688.92C136.363 1670.28 149.531 1650.73 175.867 1611.64L1172.58 131.939Z" fill="url(#paint0_linear_67_2)"/>
<path d="M1094.01 252.581C1120.12 213.823 1133.17 194.444 1154.25 188.724C1154.47 188.662 1154.7 188.602 1154.93 188.543C1176.07 183.068 1197.01 193.431 1238.89 214.157L2095.45 638.035C2460.33 818.599 2571.75 1238.7 2344.31 1576.35V1576.35C2116.87 1914.01 1636.7 2041.35 1271.82 1860.79L415.257 1436.91C373.374 1416.18 352.432 1405.82 347.395 1387.39C347.341 1387.19 347.288 1387 347.237 1386.8C342.479 1368.29 355.533 1348.91 381.64 1310.16L1094.01 252.581Z" fill="url(#paint1_linear_67_2)"/>
<path d="M1027.65 351.103C1039.98 332.796 1046.15 323.642 1054.12 317.887C1065.94 309.346 1080.92 305.373 1095.43 306.931C1105.2 307.981 1115.09 312.876 1134.87 322.666L1847.13 675.134C2073.9 787.354 2143.15 1048.44 2001.79 1258.29V1258.29C1860.44 1468.14 1562.02 1547.29 1335.25 1435.07L622.989 1082.6C603.206 1072.81 593.314 1067.92 587.367 1061.19C578.541 1051.2 575.065 1038.1 577.782 1025.05C579.613 1016.25 585.778 1007.1 598.11 988.794L1027.65 351.103Z" fill="url(#paint2_linear_67_2)"/>
<path d="M1486.14 1041.61C1512.48 1002.51 1525.65 982.964 1546.96 977.314C1568.26 971.663 1589.39 982.117 1631.64 1003.02L2673.16 1518.43C2791.4 1576.95 2850.52 1606.2 2896.07 1636.83C3209.61 1847.63 3310.87 2229.43 3143.01 2567.91C3118.62 2617.08 3081.77 2671.79 3008.06 2781.21V2781.21C2934.35 2890.64 2897.5 2945.35 2860.01 2988.04C2601.95 3281.87 2165.56 3397.61 1795.8 3270.28C1742.08 3251.78 1682.96 3222.52 1564.71 3164.01L523.194 2648.6C480.944 2627.69 459.819 2617.24 454.875 2598.6C449.931 2579.96 463.099 2560.41 489.435 2521.31L1486.14 1041.61Z" fill="url(#paint3_linear_67_2)"/>
<path d="M1407.58 1162.25C1433.69 1123.5 1446.74 1104.12 1467.81 1098.4C1468.04 1098.33 1468.27 1098.27 1468.5 1098.22C1489.64 1092.74 1510.58 1103.1 1552.46 1123.83L2409.02 1547.71C2773.9 1728.27 2885.31 2148.37 2657.87 2486.02V2486.02C2430.43 2823.68 1950.26 2951.02 1585.38 2770.46L728.824 2346.58C686.941 2325.86 666 2315.49 660.963 2297.06C660.908 2296.87 660.856 2296.67 660.805 2296.47C656.047 2277.96 669.1 2258.59 695.207 2219.83L1407.58 1162.25Z" fill="url(#paint4_linear_67_2)"/>
<path d="M1341.22 1260.78C1353.55 1242.47 1359.72 1233.31 1367.69 1227.56C1379.51 1219.02 1394.49 1215.05 1408.99 1216.6C1418.77 1217.65 1428.66 1222.55 1448.44 1232.34L2160.7 1584.81C2387.47 1697.03 2456.71 1958.12 2315.36 2167.97V2167.97C2174.01 2377.82 1875.58 2456.96 1648.81 2344.74L936.557 1992.27C916.773 1982.48 906.882 1977.59 900.934 1970.86C892.108 1960.87 888.632 1947.77 891.349 1934.72C893.18 1925.93 899.346 1916.77 911.678 1898.47L1341.22 1260.78Z" fill="url(#paint5_linear_67_2)"/>
</g>
<defs>
<linearGradient id="paint0_linear_67_2" x1="1228.44" y1="48.9999" x2="2161.59" y2="2685.22" gradientUnits="userSpaceOnUse">
<stop offset="0.135" stop-color="#554AEC"/>
<stop offset="0.89" stop-color="#A3B4FA"/>
</linearGradient>
<linearGradient id="paint1_linear_67_2" x1="1149.64" y1="169.991" x2="1810.13" y2="2225.84" gradientUnits="userSpaceOnUse">
<stop offset="0.135" stop-color="#554AEC"/>
<stop offset="0.89" stop-color="#A3B4FA"/>
</linearGradient>
<linearGradient id="paint2_linear_67_2" x1="1068.82" y1="289.981" x2="1410.04" y2="1717.72" gradientUnits="userSpaceOnUse">
<stop offset="0.135" stop-color="#554AEC"/>
<stop offset="0.89" stop-color="#A3B4FA"/>
</linearGradient>
<linearGradient id="paint3_linear_67_2" x1="1542.01" y1="958.672" x2="2475.16" y2="3594.89" gradientUnits="userSpaceOnUse">
<stop offset="0.135" stop-color="#554AEC"/>
<stop offset="0.89" stop-color="#A3B4FA"/>
</linearGradient>
<linearGradient id="paint4_linear_67_2" x1="1463.21" y1="1079.66" x2="2123.7" y2="3135.51" gradientUnits="userSpaceOnUse">
<stop offset="0.135" stop-color="#554AEC"/>
<stop offset="0.89" stop-color="#A3B4FA"/>
</linearGradient>
<linearGradient id="paint5_linear_67_2" x1="1382.39" y1="1199.65" x2="1723.6" y2="2627.39" gradientUnits="userSpaceOnUse">
<stop offset="0.135" stop-color="#554AEC"/>
<stop offset="0.89" stop-color="#A3B4FA"/>
</linearGradient>
<clipPath id="clip0_67_2">
<rect width="3500" height="3500" fill="white"/>
</clipPath>
</defs>
</svg>
